<?xml version="1.0" encoding="utf-8"?>
<svg viewBox="0 0 500 500" xmlns="http://www.w3.org/2000/svg">
  <g transform="matrix(0.960463, 0, 0, 0.964993, 275.741302, 2.961674)" style="">
    <path d="M -8.687 474.265 C -14.153 477.573 -20.416 479.321 -26.801 479.321 C -33.188 479.321 -39.453 477.572 -44.919 474.262 C -56.086 467.503 -114.611 431.185 -169.856 380.085 C -246.074 309.585 -284.082 241.538 -282.768 177.901 C -281.089 96.578 -213.335 31.413 -132.004 32.698 C -92.038 33.33 -54.83 49.836 -27.833 77.712 C -27.265 78.298 -26.336 78.298 -25.769 77.712 C 1.227 49.837 38.433 33.331 78.397 32.698 C 159.726 31.41 227.482 96.571 229.166 177.892 C 230.483 241.532 192.476 309.582 116.254 380.085 C 61.009 431.186 2.485 467.503 -8.687 474.265 Z" style="filter: none;"/>
    <path d="M 198.206 181.095 C 198.206 116.244 145.634 63.672 80.783 63.672 C 35.603 63.672 -3.616 89.188 -23.253 126.595 C -24.765 129.474 -28.84 129.474 -30.351 126.595 C -49.987 89.188 -89.207 63.672 -134.387 63.672 C -199.238 63.672 -251.81 116.244 -251.81 181.095 C -251.81 309.2 -51.463 434.075 -28.868 447.751 C -27.596 448.521 -26.009 448.521 -24.737 447.751 C -2.14 434.075 198.206 309.2 198.206 181.095 Z" style="fill: rgb(195, 0, 182);"/>
    <path d="M 111.626 67.764 C 139.237 89.249 157 122.795 157 160.491 C 157 284.344 -30.267 405.177 -63.118 425.422 C -46.196 437.103 -33.611 444.879 -28.866 447.751 C -27.594 448.521 -26.007 448.521 -24.735 447.751 C -2.14 434.075 198.207 309.2 198.207 181.095 C 198.206 126.917 161.515 81.309 111.626 67.764 Z" style="fill: rgb(227, 65, 216);"/>
  </g>
</svg>